<svg xmlns="http://www.w3.org/2000/svg" xmlns:xlink="http://www.w3.org/1999/xlink" width="93" height="32" viewBox="0 0 93 32"><defs><path id="bon1a" d="M1217.421 128.387c1.177.07 2.381.124 3.598.158v-20.938h3.561v-3.387h-10.72v3.387h3.561z"/><path id="bon1b" d="M1233.379 128.186l.639-2.911h-3.73V104.25h-3.598v24.32a123.15 123.15 0 0 0 6.689-.384"/><path id="bon1c" d="M1238.676 127.645l.775-4.452h3.88l.648 3.719c.705-.112 1.096-.182 1.096-.182s.924-.164 2.5-.395l-4.596-22.085h-3.175l-4.954 23.805c1.372-.13 2.658-.27 3.826-.41zm2.715-15.808l1.376 7.976h-2.752z"/><path id="bon1d" d="M1253.238 125.626v-11.181l3.968 10.803a127.77 127.77 0 0 1 4.217-.275V104.25h-3.599v14.146l-4.974-14.146h-3.21v21.81c1.06-.14 2.272-.29 3.598-.434"/><path id="bon1e" d="M1267.071 124.85c1.207.007 2.412.038 3.598.086v-17.3h3.562v-3.386h-10.721v3.386h3.561z"/><path id="bon1f" d="M1279.938 125.631V104.25h-3.598v21.033c1.266.106 2.473.226 3.598.348"/><path id="bon1g" d="M1287.945 126.732s2.006.356 5.143.758c1.226-1.175 1.943-2.976 1.943-5.146v-1.8h-3.598v1.694c0 2.116-.812 3.351-2.188 3.351-1.375 0-2.187-1.235-2.187-3.351v-11.5c0-2.117.812-3.351 2.187-3.351 1.34 0 2.188 1.234 2.188 3.35v1.341h3.598v-1.446c0-3.845-2.364-6.632-5.786-6.632-3.457 0-5.785 2.716-5.785 6.632v11.712c0 1.479.333 2.787.933 3.842 2.208.307 3.552.546 3.552.546"/><path id="bon1h" d="M1202.485 126.7s1.17.209 3.123.486l.7-4.023h3.88l.818 4.691c1.198.127 2.48.248 3.822.354l-4.992-23.988h-3.175L1202 126.618c.316.052.485.082.485.082zm5.763-14.899l1.376 7.99h-2.751z"/><path id="bon1i" d="M1253.896 135.528c-.41.198-1.052.33-1.668.33-1.848 0-2.588-.987-2.588-3.18 0-2.235.805-3.188 2.63-3.188.525 0 1.108.107 1.51.28l-.106.96a3.545 3.545 0 0 0-1.347-.262c-1.159 0-1.578.476-1.578 2.201 0 1.718.395 2.194 1.455 2.194.279 0 .525-.033.747-.107v-2.317h.945z"/><path id="bon1j" d="M1259.285 133.065l1.372 2.686h-1.225l-1.109-2.48h-.903v2.48h-1.06v-6.161h1.939c1.347 0 1.996.558 1.996 1.832 0 .912-.353 1.479-1.01 1.643m-.97-2.538h-.898v1.887h.874c.643 0 .915-.212.915-.956 0-.71-.264-.931-.89-.931"/><path id="bon1k" d="M1267.027 133.665c0 1.495-.756 2.193-2.185 2.193-1.43 0-2.202-.698-2.202-2.193v-4.075h1.06v4.059c0 .837.353 1.199 1.142 1.199.789 0 1.134-.353 1.134-1.2v-4.058h1.051z"/><path id="bon1l" d="M1271.522 133.558h-.862v2.193h-1.06v-6.161h1.922c1.496 0 2.112.591 2.112 2.005 0 1.306-.6 1.963-2.112 1.963m0-3.031h-.87v2.126h.87c.707 0 1.027-.205 1.027-1.072 0-.81-.287-1.054-1.027-1.054"/><path id="bon1m" d="M1278.348 134.413h-2.17l-.36 1.339h-1.118l1.94-6.162h1.289l1.963 6.162h-1.183zm-1.24-3.358l-.67 2.431h1.66l-.646-2.431-.156-.652h-.024z"/></defs><g><g transform="translate(-1202 -104)"><g><use fill="#b2b4b6" xlink:href="#bon1a"/></g><g><use fill="#b2b4b6" xlink:href="#bon1b"/></g><g><use fill="#b2b4b6" xlink:href="#bon1c"/></g><g><use fill="#b2b4b6" xlink:href="#bon1d"/></g><g><use fill="#b2b4b6" xlink:href="#bon1e"/></g><g><use fill="#b2b4b6" xlink:href="#bon1f"/></g><g><use fill="#b2b4b6" xlink:href="#bon1g"/></g><g><use fill="#b2b4b6" xlink:href="#bon1h"/></g><g><use fill="#b2b4b6" xlink:href="#bon1i"/></g><g><use fill="#b2b4b6" xlink:href="#bon1j"/></g><g><use fill="#b2b4b6" xlink:href="#bon1k"/></g><g><use fill="#b2b4b6" xlink:href="#bon1l"/></g><g><use fill="#b2b4b6" xlink:href="#bon1m"/></g></g></g></svg>