<?xml version="1.0" encoding="UTF-8"?>
<svg id="Layer_1" data-name="Layer 1" xmlns="http://www.w3.org/2000/svg" width="997.65" height="168" xmlns:xlink="http://www.w3.org/1999/xlink" viewBox="0 0 997.65 168">
  <defs>
    <style>
      .cls-1, .cls-2 {
        fill: none;
      }

      .cls-3 {
        fill: #04584e;
      }

      .cls-4 {
        fill: #bdab8d;
      }

      .cls-2 {
        clip-path: url(#clippath);
      }
    </style>
    <clipPath id="clippath">
      <rect class="cls-1" width="997.65" height="168"/>
    </clipPath>
  </defs>
  <g class="cls-2">
    <path class="cls-3" d="m84.76,132.7c-8.14,7.13-20.16,10.77-37.68,10.77h-17.07c-3.02,0-5.46-2.45-5.46-5.46V27.24c0-3.02,2.44-5.46,5.46-5.46h17.82c17.65,0,29.17,3.88,37.18,11.14,11.27,10.14,15.65,27.54,15.65,49.7,0,22.28-4.51,39.94-15.9,50.08M102.78,15.77C90.14,4.88,72.23,0,47.57,0H5.46C2.45,0,0,2.45,0,5.46v154.32c0,3.02,2.45,5.46,5.47,5.46h41.86c20.4,0,40.56-3.38,55.46-16.27,15.65-13.52,23.66-35.81,23.66-66.48,0-30.92-8.01-53.33-23.66-66.72"/>
    <path class="cls-3" d="m201.68,148.6c-22.41,0-30.67-14.27-30.67-45.82,0-31.55,8.51-46.07,30.67-46.07s30.17,14.14,30.17,45.82c0,31.42-8.38,46.07-30.17,46.07m0-111.29c-39.43,0-55.33,24.91-55.33,65.85,0,40.93,14.78,64.84,54.84,64.84s55.34-25.04,55.33-65.72c0-41.06-14.78-64.97-54.84-64.97"/>
    <path class="cls-3" d="m346.07,37.43c-11.31,0-23.24,4.48-32.81,11.2-3.25,2.28-7.73.31-8.07-3.64l-.02-.29c-.23-2.62-2.42-4.64-5.06-4.64h-12.05c-2.8,0-5.07,2.27-5.07,5.07v115.04c0,2.8,2.28,5.07,5.08,5.07h14.26c2.8,0,5.07-2.27,5.07-5.07v-83.52c0-1.39.54-2.72,1.55-3.67,7.67-7.16,19.01-14.27,30.12-14.27,14.27,0,19.16,9.14,19.16,26.66v74.8c0,2.8,2.28,5.07,5.08,5.07h14.26c2.8,0,5.07-2.27,5.07-5.07v-81.93c0-24.16-10.4-40.81-36.56-40.81"/>
    <path class="cls-3" d="m484.95,130.6c-7.05,9.49-18.91,18.25-31.92,18.25s-20.91-6.51-20.91-18.53c0-15.02,12.89-19.65,27.42-19.65h21.08c2.95,0,5.34,2.39,5.34,5.34v11.45c0,1.13-.33,2.24-1,3.15m-23.66-93.29c-27.2,0-45.98,10.84-48.92,31.54-.45,3.13,2.14,5.89,5.31,5.89h13.82c2.43,0,4.66-1.63,5.16-4.01,2.01-9.52,11.41-14.02,24.14-14.02,19.4,0,25.16,11.01,25.16,24.66v5.93c0,2.95-2.39,5.34-5.34,5.34h-23.96c-29.3,0-49.45,11.89-49.45,38.31,0,24.28,15.15,37.05,39.56,37.05,13.04,0,24.47-4.68,33.87-11.95,3.25-2.51,8.01-.38,8.46,3.71l.08.75c.3,2.7,2.58,4.75,5.3,4.75h10.54c2.95,0,5.34-2.39,5.34-5.34v-77.04c0-29.17-14.65-45.57-49.08-45.57"/>
    <path class="cls-3" d="m598.05,146.35c-2.87.29-2.83.5-6.04.5-13.9,0-15.65-4.63-15.65-19.16v-61.69c0-2.99,1.54-4.7,5.41-5.41l16.76-3.21c2.45-.59,5.41-2.42,5.41-5.41v-6.5c0-2.99-2.65-5.06-5.41-5.41l-16.76-3.21c-3.31-.6-5.41-2.42-5.41-5.41V9.42c0-2.99-2.42-5.41-5.41-5.41h-10.47c-2.78,0-5.11,2.11-5.39,4.87l-2.65,23.11c-.28,2.77-2.99,4.1-5.39,4.87l-12.1,3.21c-2.59.47-5.41,2.42-5.41,5.41v6.5c0,2.99,2.54,4.58,5.42,5.41l11.46,3.21c2.97.54,5.41,2.42,5.41,5.41v64.57c0,24.54,9.02,36.93,32.8,36.93,6.23,0,9.53-.64,14.72-1.44,2.65-.41,4.61-2.67,4.61-5.36v-8.96c0-3.19-2.74-5.71-5.9-5.39"/>
    <path class="cls-4" d="m997.19,101.43c0-10.36-7.29-14.67-18.71-14.67s-19.12,4.95-19.12,14.35c0,7.34,4.59,11.28,10.5,13.02l10.04,2.93c2.75.83,4.86,1.84,4.86,4.81,0,2.71-2.06,4.59-6.42,4.59-4.03,0-6.97-1.7-6.97-5.91h-12.75c0,10.87,7.15,14.99,19.67,14.99,13.98,0,19.35-6.83,19.35-14.31s-4.68-11.19-10.82-13.02l-9.54-2.84c-3.03-.92-5.04-1.97-5.04-4.91,0-2.48,1.7-4.63,6.28-4.63,3.3,0,6.33,1.38,6.37,5.59h12.29Zm-43.74-14.67c-5.41,0-9.77,3.58-11.6,8.48l-.6-7.29h-11.46v46.4h12.93v-21.27c0-7.43,3.21-12.06,10.27-12.06h2.2l1.15-14.03c-.96-.14-1.79-.23-2.89-.23m-53.83,39.25c-3.53,0-5.73-1.79-5.73-5.27,0-3.99,3.21-5.46,7.47-5.46h6.97v5.91c-1.93,2.52-5.18,4.81-8.71,4.81m2.25-39.25c-12.2,0-19.53,5.27-19.53,15.45h12.75c0-3.76,2.52-5.64,6.6-5.64,5.14,0,6.65,2.93,6.65,7.15v3.39h-8.71c-11.74,0-18.89,4.45-18.89,14.26,0,9.12,5.23,14.17,14.49,14.17,5.73,0,10.55-2.38,14.4-6.01l.82,4.81h10.82v-29.3c0-12.24-5.64-18.29-19.39-18.29m-46.95,9.72c5.23,0,7.38,3.58,7.61,9.81h-15.77c.46-6.79,3.25-9.81,8.16-9.81m20.54,13.8c0-16.92-7.75-23.52-20.36-23.52s-21.5,6.37-21.5,24.39c0,15.82,5.82,24.39,21.27,24.39s20.13-9.17,20.13-16.32h-12.75c0,4.22-2.66,6.6-7.34,6.6-5.41,0-7.93-3.35-8.21-11.37h28.75v-4.17Zm-57.77-22.33l-5.73,21.69c-1.05,4.77-2.38,11.51-2.66,15.18h-.32c-.23-3.67-1.38-10.5-2.38-15.18l-5.73-21.69h-13.71l15.31,50.02c-1.79,3.94-3.99,5.23-8.39,5.23-2.2,0-4.17-.23-6.01-.64v10.32c2.25.37,5.14.55,8.44.55,9.58,0,16.46-5.04,19.85-16.23l14.9-49.24h-13.57Zm-67.31,9.77c-4.45,0-8.39,1.15-11.69,3.16l2.15-12.1,24.3.23v-11.51h-34.94l-3.71,28.66,10.77,4.91c1.93-2.2,4.77-3.9,8.57-3.9,5.09,0,7.75,3.26,7.75,8.8s-3.16,8.48-7.61,8.48-8.3-2.15-8.3-8.3h-13.02c0,13.48,8.53,19.39,21.18,19.39,11.65,0,21.6-5.59,21.6-19.17,0-11.92-6.46-18.66-17.06-18.66m-40.16,25.13v-45.35h-10.64c-3.12,3.99-9.58,6.83-15.86,7.11v10.32c4.03,0,9.35-.69,13.57-2.38v30.31h-13.57v11.51h36.13v-11.51h-9.63Zm-42.55,0v-45.35h-10.64c-3.12,3.99-9.58,6.83-15.86,7.11v10.32c4.03,0,9.35-.69,13.57-2.38v30.31h-13.57v11.51h36.13v-11.51h-9.63Z"/>
  </g>
</svg>