<svg width="787" height="1470" viewBox="0 0 787 1470" fill="none" xmlns="http://www.w3.org/2000/svg">
<g opacity="0.08">
<path d="M155.318 653.055C183.116 650.347 211.592 650.347 239.39 649.67C246.17 649.67 252.95 649.67 260.408 649.67C268.544 649.67 276.68 651.024 284.138 653.055C299.054 657.792 311.936 664.561 324.14 672.683C336.344 680.805 347.87 690.281 358.718 701.787C361.43 704.494 364.142 707.202 366.176 710.586L369.566 715.324L372.278 718.708C376.346 724.123 381.092 728.861 385.838 734.952L392.618 743.751L398.72 752.55C402.788 758.642 406.856 764.056 410.924 770.148C419.06 782.331 426.518 793.837 433.976 806.02C465.164 853.399 484.825 906.869 522.115 940.711C527.539 946.126 533.641 952.894 538.387 961.693C543.133 970.492 545.845 979.968 547.201 988.09C547.879 992.151 548.557 996.212 548.557 999.596L549.235 1005.01L549.913 1009.75L551.269 1019.9L551.947 1025.32V1027.35L552.625 1029.38L553.303 1031.41V1032.08V1034.12V1036.15C553.303 1038.85 553.303 1040.88 553.981 1042.91C553.981 1046.98 553.981 1051.04 553.303 1055.1C552.625 1063.22 551.269 1070.66 549.913 1078.11C547.201 1093 543.133 1107.21 539.065 1121.43L535.675 1128.2C535.675 1128.2 534.997 1129.55 534.319 1130.9L532.285 1134.29C530.929 1136.32 529.573 1139.03 528.895 1141.06C526.183 1145.79 524.149 1150.53 522.115 1155.27L516.013 1170.16C514.657 1172.87 513.979 1174.9 512.623 1177.61C511.267 1180.31 509.911 1182.34 509.233 1185.05C505.165 1195.2 499.741 1204.68 494.995 1215.51C492.961 1220.92 490.927 1225.66 488.215 1231.08C486.181 1236.49 484.147 1241.9 482.113 1246.64L480.758 1250.7C470.587 1268.3 459.74 1285.9 450.248 1304.17C440.078 1321.77 430.586 1340.05 421.094 1358.32C411.602 1376.6 402.11 1394.87 393.974 1413.15C385.838 1432.1 377.702 1450.37 372.278 1470L366.176 1468.65C369.566 1447.66 375.668 1428.04 381.77 1407.73C388.55 1388.1 396.008 1368.47 403.466 1349.52C411.602 1330.57 419.738 1310.94 428.552 1292.67C437.366 1273.72 446.18 1254.76 454.993 1236.49L453.638 1240.55C454.316 1228.37 456.35 1216.86 457.706 1204.68C459.74 1193.17 461.773 1180.99 465.163 1169.48C466.52 1163.39 468.553 1157.98 471.266 1151.89C473.299 1146.47 476.011 1140.38 478.723 1134.96C481.435 1129.55 484.147 1124.13 487.537 1118.72C488.893 1116.01 490.927 1113.31 492.283 1110.6L494.995 1106.54C495.673 1105.18 497.029 1103.83 498.385 1101.8L494.995 1108.57C499.063 1095.71 502.453 1083.52 505.165 1070.66C506.521 1064.57 507.199 1058.48 507.877 1052.39C507.877 1049.68 508.555 1046.3 508.555 1044.27C508.555 1042.91 508.555 1041.56 508.555 1040.88V1040.21V1040.88V1040.21L507.877 1037.5L507.199 1034.79L506.521 1031.41L505.843 1025.99L504.487 1015.16L503.809 1009.75L503.131 1004.33C503.131 1000.95 502.453 998.243 501.775 995.535C501.097 990.121 499.741 986.06 497.707 982.675C495.673 979.291 492.961 975.907 488.893 971.169C484.825 967.108 478.046 961.017 473.299 954.925C467.876 948.833 463.807 942.742 459.061 936.65C450.247 924.467 442.79 911.607 435.332 899.424C421.094 874.381 407.534 850.015 396.686 824.972C390.584 812.789 384.482 799.929 378.38 787.746C374.99 781.654 372.278 775.562 368.888 769.471L364.142 760.672L359.396 752.55C356.006 747.812 351.938 741.721 347.192 735.629C345.836 734.275 345.158 732.245 343.802 730.214L341.09 726.153C339.734 723.446 337.7 720.739 335.666 718.031C328.208 707.879 319.394 698.403 309.224 689.604C299.054 681.482 288.206 674.037 276.68 668.622C271.256 665.915 265.154 663.884 259.052 663.207C252.272 662.53 244.814 661.853 238.034 661.177L196.676 657.792C183.116 656.439 168.878 653.731 155.318 653.055Z" fill="#00594E"/>
<path d="M1017.05 228.678C1008.92 238.831 1002.14 248.983 994.003 259.136C985.867 269.288 978.409 279.441 966.883 288.24C955.357 296.362 942.475 301.1 930.949 305.838C919.423 310.576 909.253 315.313 899.761 322.082C895.015 325.466 890.947 329.527 886.879 333.588C882.811 337.649 878.743 342.387 875.353 346.448C868.573 355.247 863.149 365.399 858.403 376.229C853.657 387.058 848.911 399.918 840.775 412.778C836.707 418.87 831.283 424.961 825.181 430.376C819.079 435.791 812.977 439.852 806.197 443.236L804.841 443.913C796.027 447.974 785.857 450.681 775.009 450.681C764.161 450.681 753.991 448.651 743.821 444.59C724.837 436.468 710.599 422.931 699.751 409.394C678.055 381.644 664.495 350.509 654.325 319.374C648.901 303.13 645.511 286.209 644.155 267.935C643.477 259.136 644.155 249.66 645.511 240.184L649.579 216.495C652.291 201.604 654.325 187.391 653.647 173.854C653.647 159.64 651.613 146.104 648.223 133.244C644.155 119.707 638.731 106.847 631.951 94.6637C628.561 88.5722 624.493 83.1574 620.425 77.7427C618.391 75.0354 616.357 72.328 613.645 69.6206C611.611 67.5901 609.577 64.8828 606.865 62.8522C596.695 54.7302 585.169 47.9618 571.609 43.2239C558.727 38.486 544.489 35.7787 529.573 33.7481C501.775 29.6871 471.265 32.3945 444.145 42.5471C430.585 47.2849 417.703 54.7302 407.533 64.2059C402.787 68.9438 398.041 74.3585 394.651 80.4501C392.617 83.1574 391.261 86.5416 389.905 89.9258C388.549 93.31 387.193 97.3711 385.837 100.755C381.091 114.969 377.701 129.183 378.379 144.073C379.057 158.963 382.447 173.854 386.515 188.744L389.905 200.251L390.583 202.958C390.583 204.312 391.261 204.989 391.261 206.342C391.939 208.373 391.939 211.08 391.939 213.111V236.8V248.306C391.939 252.367 391.939 256.428 391.939 259.136C392.617 265.227 396.685 270.642 401.431 274.026C406.177 277.41 414.991 280.118 422.449 285.532C425.839 288.24 429.229 292.301 431.941 296.362L438.721 306.514L450.925 326.82C454.993 333.588 459.061 340.356 463.129 345.094C465.163 347.802 467.197 349.155 468.553 349.155C469.231 349.155 469.909 349.155 471.265 349.155C471.265 349.155 473.299 349.155 474.655 348.479L486.181 346.448C490.249 345.771 494.317 345.094 500.419 345.094C501.775 345.094 503.809 345.094 505.843 345.771C507.199 345.771 508.555 346.448 509.233 347.125C510.589 347.802 510.589 347.802 511.945 348.479C514.657 350.509 516.691 351.863 518.725 353.893C522.115 357.277 525.505 361.338 528.217 364.723C529.573 366.753 530.929 368.784 532.285 371.491C532.963 372.845 533.641 374.198 534.319 375.552C534.319 376.229 534.997 376.906 534.997 378.259L535.675 380.29C536.353 384.351 537.031 388.412 537.709 392.473C538.387 396.534 539.065 400.595 539.065 406.687C539.065 412.101 538.387 416.839 537.031 422.254C534.319 432.407 528.895 441.882 521.437 449.328C517.369 453.389 513.301 456.773 508.555 458.803C506.521 460.157 503.131 461.511 501.097 462.188C499.063 462.864 496.351 463.541 494.317 464.218C486.181 466.925 478.045 468.956 469.231 470.31C452.959 473.694 436.687 475.048 421.771 477.078C414.313 477.755 406.855 479.109 400.075 480.462L393.295 482.493C391.261 483.17 388.549 483.17 386.515 483.846C381.769 484.523 377.023 485.2 372.955 485.2C336.344 485.877 303.8 472.34 277.358 467.602C263.798 465.572 249.56 465.572 234.644 467.602C219.728 469.633 204.812 471.663 192.608 477.078L191.252 477.755H190.574H189.896L191.93 477.078C176.336 483.17 160.064 487.231 143.114 488.584C126.164 489.938 110.57 489.938 94.9758 489.261C79.3818 488.584 63.1098 488.584 48.1938 487.231C32.5999 486.554 17.0059 486.554 1.41191 487.907L0.0559082 484.523C15.6499 479.785 31.2439 477.755 46.8379 475.724C62.4318 473.694 78.0258 473.017 93.6198 470.986C109.214 469.633 124.808 468.956 139.046 465.572C153.284 462.864 167.522 458.127 180.404 452.035H181.082L182.438 451.358H183.116L180.404 452.035L183.116 450.681C184.472 450.004 185.15 449.328 186.506 449.328C188.54 448.651 190.574 447.297 192.608 446.62C196.676 445.267 200.744 443.913 204.812 442.559C212.948 439.852 221.084 438.498 229.22 436.468C245.492 433.76 263.12 431.73 280.748 433.76C289.562 434.437 298.376 436.468 305.834 438.498L328.885 443.913C343.801 447.297 357.361 449.328 370.921 448.651C374.311 448.651 377.701 447.974 380.413 447.297C381.769 447.297 383.803 446.62 385.159 446.62L391.261 445.267C399.397 443.913 407.533 442.559 415.669 441.206C431.941 439.175 447.535 437.821 461.773 435.791C469.231 434.437 476.011 433.76 482.791 431.73L487.537 430.376C488.893 429.699 489.571 429.699 490.927 429.022C492.961 428.346 494.995 426.992 497.029 424.961C501.097 422.254 503.809 417.516 505.843 412.778C507.877 407.364 507.877 403.302 507.877 395.857C507.877 392.473 507.199 388.412 507.199 384.351C507.199 383.674 506.521 380.967 505.165 378.259C503.809 375.552 501.775 372.845 499.741 370.814C499.063 369.461 497.707 368.784 497.707 368.107H498.385C498.385 368.107 498.385 368.107 497.707 368.107C495.673 367.43 492.283 368.107 488.893 368.107L476.689 369.461C474.655 369.461 471.943 370.137 468.553 369.461C465.841 368.784 462.451 368.107 459.739 366.753C454.315 365.4 450.247 360.662 447.535 357.277C442.111 349.832 439.399 342.387 435.331 334.942C431.941 328.173 428.551 320.728 425.161 313.96L419.737 303.807C418.381 301.1 416.347 298.392 413.635 296.362C411.601 294.331 408.211 292.301 405.499 290.947C402.109 288.917 398.719 287.563 394.651 284.856C386.515 279.441 381.769 269.965 380.413 260.489C379.735 255.075 380.413 251.69 380.413 247.629V236.123V212.434C380.413 210.403 380.413 209.05 379.735 207.696C379.735 207.019 379.735 206.342 379.057 205.665L377.701 202.958L374.311 191.452C369.565 176.561 365.497 160.317 364.141 144.073C362.785 127.829 364.819 110.231 369.565 94.6637C370.921 90.6027 372.277 87.2185 372.955 83.1574C374.311 79.0964 375.667 75.0354 377.701 70.9743C381.769 62.8522 386.515 55.407 392.617 49.3155C404.143 36.4555 419.059 26.3029 434.653 19.5345C465.163 5.32089 499.063 -0.770666 532.963 0.583013C549.913 1.25985 566.863 3.96721 583.813 9.38193C600.763 14.7966 617.035 22.2419 631.273 33.7481C634.663 36.4555 638.731 39.8397 642.121 43.2239C645.511 46.6081 648.223 49.3155 650.935 52.6997C656.359 59.468 661.783 66.2364 666.529 73.6817C676.021 88.5722 682.801 104.139 688.225 121.06C693.649 137.981 696.361 155.579 697.039 173.177C697.717 190.775 695.683 207.696 692.971 223.94L688.903 246.953C688.225 253.044 687.547 259.136 688.225 265.904C688.903 278.764 692.293 292.978 696.361 306.514C700.429 320.728 705.853 334.265 711.955 347.802C718.057 361.338 724.837 373.522 732.973 385.028C741.109 395.857 750.601 405.333 760.093 410.071C769.585 414.809 779.755 414.809 791.281 410.748L789.925 411.425C799.417 406.687 807.553 401.272 813.655 393.827C819.757 386.382 824.503 374.875 831.283 363.369C837.385 351.863 845.521 339.68 855.013 329.527C859.759 324.112 864.505 319.374 869.929 315.313C875.353 310.575 880.777 306.514 886.879 303.13C899.083 295.685 912.643 290.947 924.847 287.563C937.051 284.179 948.577 281.471 958.747 276.057C963.493 273.349 968.239 269.965 972.985 265.904C977.731 261.843 982.477 257.782 986.545 253.044C995.359 244.245 1004.85 235.446 1014.34 226.647L1017.05 228.678Z" fill="#00594E"/>
<path d="M770.263 1319.74C765.517 1308.91 761.449 1297.41 752.635 1294.7C743.143 1291.31 730.939 1291.31 720.091 1290.64L685.513 1289.28C673.309 1288.61 661.783 1287.93 648.901 1284.55C642.799 1283.19 636.019 1280.49 629.239 1276.42C625.849 1274.39 622.459 1271.69 619.747 1267.63C617.035 1263.56 615.001 1258.83 615.001 1253.41C614.323 1248.67 615.679 1243.94 616.357 1239.87C617.035 1237.84 617.713 1235.81 618.391 1234.46L619.069 1233.11V1232.43C619.069 1232.43 619.069 1231.75 619.747 1231.08C621.103 1229.05 622.459 1227.01 623.815 1226.34C629.239 1222.28 633.307 1220.92 636.697 1219.57C640.087 1218.22 643.477 1217.54 646.867 1216.86C659.749 1214.83 671.953 1214.15 683.479 1213.48C695.683 1212.8 707.209 1212.8 718.735 1213.48C730.261 1213.48 742.465 1213.48 753.991 1214.15C759.415 1214.15 766.195 1214.83 770.941 1214.83C776.365 1214.83 781.111 1214.83 785.857 1214.15C790.603 1213.48 794.671 1212.8 798.061 1211.45C801.451 1210.09 803.485 1208.06 804.163 1207.39C804.163 1206.71 804.841 1206.71 804.841 1206.03V1205.36C804.841 1203.33 804.841 1205.36 804.841 1206.03C805.519 1206.71 804.841 1206.71 804.163 1206.03C802.807 1204.68 798.739 1203.33 794.671 1201.97C790.603 1200.62 785.179 1199.94 780.433 1199.26C770.263 1197.91 759.415 1197.23 748.567 1197.23H731.617H713.989C702.463 1197.23 690.259 1197.23 678.055 1197.23C665.851 1196.56 653.647 1195.88 640.087 1193.85C633.307 1192.5 626.527 1191.14 619.069 1188.43C611.611 1185.73 602.797 1181.67 595.339 1172.87C587.203 1164.75 583.135 1152.56 582.457 1143.09C581.779 1138.35 582.457 1134.29 582.457 1129.55C583.135 1123.46 584.491 1117.37 587.881 1111.28C591.271 1105.86 596.017 1101.12 600.085 1097.74C604.831 1094.35 608.899 1092.32 612.967 1090.29C621.103 1086.91 628.561 1085.56 635.341 1084.2C648.901 1082.17 661.783 1082.17 673.987 1082.17C686.191 1082.17 698.395 1082.85 709.921 1083.52C733.651 1084.88 756.703 1086.91 779.755 1088.94C802.807 1090.29 826.537 1093.68 846.877 1093.68C856.369 1093.68 865.861 1091.65 867.895 1089.62C868.573 1088.94 869.251 1088.94 869.929 1086.23C869.929 1085.56 870.607 1083.52 870.607 1082.17V1079.46C870.607 1078.79 870.607 1080.14 870.607 1080.14V1080.82C870.607 1081.49 871.285 1082.17 871.285 1082.85C872.641 1084.88 873.319 1084.88 871.963 1084.2C871.285 1083.52 869.929 1082.85 867.895 1082.17C864.505 1080.82 859.081 1079.46 854.335 1078.11C844.165 1076.08 833.317 1074.73 821.791 1073.37C799.417 1071.34 776.365 1069.99 753.313 1069.31C730.261 1068.63 706.531 1067.28 683.479 1065.93C677.377 1065.25 671.953 1065.25 665.851 1064.57C659.749 1063.9 652.969 1063.22 646.189 1061.19C639.409 1059.16 632.629 1057.13 625.171 1052.39C621.781 1049.68 617.713 1046.98 614.323 1042.91C610.933 1038.85 608.221 1032.76 608.221 1026.67C607.543 1020.58 608.899 1014.49 611.611 1009.75C613.645 1005.01 617.035 1000.95 620.425 998.243C627.205 992.151 635.341 988.09 644.155 986.737C646.189 986.06 648.223 986.06 650.935 986.06H652.291H653.647H655.681H664.495H682.123C705.175 986.737 728.905 987.414 751.957 988.09L786.535 989.444C798.739 990.121 809.587 990.798 820.435 990.121C831.283 990.121 842.809 989.444 850.945 986.737C852.979 986.06 854.335 985.383 853.657 985.383C853.657 985.383 852.301 986.737 851.623 989.444C851.623 990.121 851.623 989.444 851.623 989.444C851.623 990.121 852.301 990.121 851.623 989.444C850.945 988.767 849.589 988.09 847.555 986.737C839.419 983.353 828.571 981.322 817.045 979.292L799.417 975.907C796.705 975.23 793.315 974.554 790.603 973.877C787.213 973.2 784.501 971.846 781.789 971.169C758.737 963.724 735.685 954.925 715.345 938.681C705.175 930.559 696.361 921.083 689.581 909.577C682.801 898.071 678.733 885.211 676.699 873.028C674.665 860.168 674.665 847.985 675.343 835.802C676.021 823.618 677.377 812.112 678.055 800.606C680.767 776.917 684.157 753.904 688.225 730.891C692.293 707.879 697.039 685.543 699.073 663.208C701.785 640.872 703.141 617.859 702.463 595.524C701.785 590.109 701.785 584.017 701.107 578.603L699.073 561.682C697.717 550.852 694.327 540.023 690.937 529.193C683.479 508.211 671.953 487.906 659.749 468.278C647.545 448.649 633.985 429.698 619.747 412.1C619.069 411.423 619.069 409.393 619.747 408.716C620.425 408.039 621.781 408.039 623.137 408.716C638.731 425.637 653.647 443.912 667.207 463.54C680.767 482.491 692.293 502.797 701.785 525.132C706.531 535.962 709.921 547.468 711.955 559.651L714.667 577.249C715.345 583.34 716.023 588.755 716.701 594.847C719.413 618.536 719.413 642.226 717.379 665.915C713.311 713.294 703.141 757.965 699.751 803.99C697.717 827.003 695.005 850.015 699.073 870.32C702.463 890.626 713.311 908.223 729.583 921.083C745.855 933.943 766.873 942.065 787.891 948.157C790.603 948.834 793.315 949.511 795.349 950.187C798.061 950.864 800.773 951.541 803.485 951.541L820.435 954.248C831.961 956.279 844.165 957.633 857.725 963.724C861.115 965.078 864.505 967.108 868.573 970.493C871.963 973.877 876.031 978.615 877.387 984.706C877.387 986.06 878.065 987.414 878.065 989.444C878.065 990.798 878.065 992.151 878.065 994.182C877.387 999.597 873.997 1003.66 871.963 1005.69C867.217 1009.75 863.149 1011.1 859.759 1012.46C852.301 1014.49 846.199 1015.84 840.097 1016.52C833.995 1017.19 827.893 1017.87 821.791 1017.87C809.587 1018.55 797.383 1017.87 785.857 1017.87L751.279 1017.19C728.227 1017.19 705.175 1017.19 682.123 1017.19H664.495H655.681H653.647H652.291H651.613C650.935 1017.19 650.257 1017.19 649.579 1017.19C646.867 1017.87 644.155 1019.23 642.121 1021.26C640.087 1023.29 640.087 1024.64 640.765 1023.29C640.765 1022.61 640.765 1022.61 640.765 1022.61C640.765 1022.61 642.121 1023.29 642.799 1024.64C645.511 1025.99 649.579 1027.35 654.325 1028.7C659.071 1030.05 663.817 1030.73 669.241 1030.73C674.665 1031.41 680.767 1031.41 686.191 1031.41C709.243 1032.08 732.295 1032.76 755.347 1033.44C778.399 1034.12 802.129 1034.12 825.859 1035.47C838.063 1036.15 849.589 1037.5 862.471 1039.53C868.573 1040.88 875.353 1042.24 882.811 1044.94C886.201 1046.3 890.269 1047.65 894.337 1050.36C898.405 1053.07 903.829 1057.13 907.219 1063.9C907.897 1065.93 909.253 1067.96 909.253 1069.99C909.253 1071.34 909.931 1072.02 909.931 1073.37C909.931 1074.05 910.609 1076.08 910.609 1076.08C910.609 1078.11 910.609 1080.14 910.609 1082.17C910.609 1086.23 910.609 1090.29 909.253 1095.03C908.575 1099.77 906.541 1104.51 903.829 1109.24C901.117 1113.98 897.727 1118.04 893.659 1121.43C885.523 1128.2 877.387 1130.9 869.929 1132.93C862.471 1134.96 855.691 1135.64 848.911 1136.32C822.469 1137.67 800.095 1134.96 777.043 1134.29L707.887 1130.9C685.513 1130.23 662.461 1129.55 643.477 1132.26C638.731 1132.93 634.663 1134.29 631.951 1134.96C629.239 1136.32 629.239 1137 629.917 1135.64C630.595 1134.96 630.595 1134.29 630.595 1134.29C630.595 1135.64 630.595 1137.67 630.595 1138.35C630.595 1140.38 630.595 1139.7 631.273 1140.38C631.273 1140.38 633.307 1141.73 636.697 1143.09C640.087 1144.44 644.155 1145.79 648.901 1146.47C658.393 1148.5 669.241 1149.18 680.767 1149.86C691.615 1150.53 703.141 1150.53 714.667 1151.21L731.617 1151.89L749.923 1152.56C762.127 1153.24 774.331 1154.59 787.213 1156.62C793.315 1157.98 800.095 1159.33 806.875 1161.36C813.655 1164.07 821.113 1166.1 828.571 1172.19C832.639 1175.57 836.707 1178.96 840.097 1185.05C843.487 1190.47 844.843 1198.59 844.843 1201.97C844.843 1208.06 844.165 1213.48 842.131 1218.89C840.097 1224.31 837.385 1228.37 833.995 1232.43C827.215 1239.87 818.401 1244.61 810.943 1246.64C803.485 1249.35 796.027 1250.03 789.247 1250.7C782.467 1251.38 775.687 1251.38 769.585 1250.7C762.805 1250.03 758.059 1250.03 751.957 1249.35L717.379 1245.97C705.853 1245.29 694.327 1243.94 683.479 1243.94C671.953 1243.26 661.105 1243.26 650.935 1243.94C648.223 1243.94 646.189 1244.61 644.155 1244.61C642.121 1244.61 640.087 1245.97 641.443 1245.29C641.443 1245.29 642.121 1244.61 642.799 1243.26C642.799 1242.58 642.799 1242.58 642.799 1243.26L642.121 1243.94C641.443 1244.61 641.443 1245.97 640.765 1246.64C640.087 1248 640.087 1249.35 639.409 1250.03C639.409 1250.7 639.409 1251.38 639.409 1252.06C640.087 1252.73 640.765 1254.09 642.121 1255.44C644.833 1258.15 649.579 1260.18 654.325 1261.53C663.817 1264.92 675.343 1267.63 686.191 1268.98L720.769 1274.39C726.871 1275.07 732.295 1276.42 738.397 1277.78C744.499 1279.13 750.601 1280.49 756.025 1283.87C762.127 1287.25 766.873 1293.35 768.907 1298.76C770.941 1304.85 772.297 1310.27 774.331 1315.68C774.331 1317.03 773.653 1318.39 772.975 1318.39C772.297 1321.77 770.941 1321.1 770.263 1319.74Z" fill="#00594E"/>
</g>
</svg>
