<svg width="34" height="34" viewBox="0 0 34 34" fill="none" xmlns="http://www.w3.org/2000/svg">
<path fill-rule="evenodd" clip-rule="evenodd" d="M17 33C8.17742 33 1 25.8225 1 17C1 8.17779 8.17742 1 17 1C25.8223 1 33 8.17779 33 17C33 25.8225 25.8223 33 17 33ZM17 1.29319C8.33856 1.29319 1.29194 8.33935 1.29194 17C1.29194 25.6607 8.33856 32.7068 17 32.7068C25.6614 32.7068 32.708 25.6607 32.708 17C32.708 8.33935 25.6614 1.29319 17 1.29319Z" fill="#114532"/>
<path fill-rule="evenodd" clip-rule="evenodd" d="M0.199997 17C0.199997 7.73593 7.73557 0.199951 17 0.199951C26.2641 0.199951 33.8 7.73592 33.8 17C33.8 26.2643 26.2641 33.7999 17 33.7999C7.73558 33.7999 0.199997 26.2643 0.199997 17ZM17 2.09314C8.78033 2.09314 2.09194 8.78118 2.09194 17C2.09194 25.2188 8.78033 31.9068 17 31.9068C25.2196 31.9068 31.908 25.2188 31.908 17C31.908 8.78118 25.2196 2.09314 17 2.09314Z" fill="#114532"/>
<path fill-rule="evenodd" clip-rule="evenodd" d="M17.0222 23.3327C17.0117 23.3327 17.0013 23.332 16.9912 23.3307C16.9813 23.332 16.9713 23.3326 16.9613 23.3326C16.9008 23.3326 16.8402 23.3094 16.7938 23.2635L13.0692 19.5384C12.9769 19.4461 12.9769 19.2966 13.0692 19.2039C13.162 19.1116 13.3115 19.1116 13.4038 19.2039L16.7855 22.5856V11.2366C16.7855 11.106 16.8915 11 17.0222 11C17.1528 11 17.2588 11.106 17.2588 11.2366V22.5413L20.5962 19.2039C20.6885 19.1116 20.838 19.1116 20.9308 19.2039C21.0231 19.2966 21.0231 19.4461 20.9308 19.5384L17.2062 23.2635C17.1598 23.3094 17.0992 23.3326 17.0387 23.3326C17.0365 23.3326 17.0344 23.3326 17.0323 23.3325C17.0289 23.3327 17.0255 23.3327 17.0222 23.3327Z" fill="#ED1A3B"/>
<path fill-rule="evenodd" clip-rule="evenodd" d="M15.9855 11.2366C15.9855 10.6641 16.4497 10.2 17.0222 10.2C17.5946 10.2 18.0588 10.6641 18.0588 11.2366V20.6099L20.0305 18.6381C20.436 18.2326 21.091 18.2347 21.495 18.6367L21.4979 18.6396C21.8999 19.0436 21.902 19.6985 21.4965 20.104C21.4965 20.104 21.4965 20.104 21.4965 20.104L17.769 23.832C17.7124 23.888 17.6508 23.9363 17.5855 23.9767V24.517L17.19 24.1214C17.1398 24.1288 17.0893 24.1325 17.0387 24.1325M20.3651 18.9727C20.3651 18.9727 20.3651 18.9727 20.3651 18.9727ZM15.9855 11.2366V20.6542ZM15.9855 20.6542L13.9694 18.6381C13.564 18.2326 12.909 18.2347 12.505 18.6367L12.5021 18.6396C12.1001 19.0436 12.098 19.6985 12.5035 20.104C12.5035 20.104 12.5035 20.104 12.5035 20.104L16.2281 23.8291L16.231 23.832C16.3002 23.9005 16.377 23.9575 16.4588 24.0027V24.4727L16.81 24.1214C16.8601 24.1288 16.9107 24.1325 16.9613 24.1325C16.9707 24.1325 16.9801 24.1324 16.9896 24.1322C17.0004 24.1325 17.0113 24.1327 17.0222 24.1327C17.0276 24.1327 17.0332 24.1326 17.0387 24.1325" fill="#00594E"/>
</svg>
