<svg width="192" height="192" viewBox="0 0 192 192" fill="none" xmlns="http://www.w3.org/2000/svg">
<mask id="mask0" mask-type="alpha" maskUnits="userSpaceOnUse" x="0" y="0" width="192" height="192">
<rect width="192" height="192" fill="#C4C4C4"/>
</mask>
<g mask="url(#mask0)">
<path d="M117.723 166.728C114.641 160.702 111.922 154.266 106.803 153.024C101.273 151.418 94.3147 151.84 88.1059 151.829L68.343 152.252C61.361 152.287 54.7655 152.299 47.303 150.81C43.7768 150.248 39.8171 148.935 35.8103 146.848C33.807 145.805 31.7801 144.375 30.0929 142.148C28.4057 139.92 27.0816 137.283 26.8938 134.188C26.3429 131.503 26.9517 128.748 27.1974 126.404C27.5136 125.22 27.8297 124.036 28.1694 123.238L28.509 122.441L28.4855 122.054C28.4855 122.054 28.4621 121.668 28.8252 121.257C29.5279 120.05 30.2306 118.842 30.9803 118.408C33.9322 115.9 36.2047 114.985 38.0907 114.094C39.9767 113.203 41.8861 112.699 43.7956 112.195C51.0703 110.588 58.0054 109.779 64.5539 108.994C71.4889 108.185 78.0609 107.786 84.6563 107.774C91.2283 107.375 98.1868 106.953 104.782 106.941C107.875 106.753 111.764 106.905 114.47 106.741C117.563 106.553 120.269 106.389 122.952 105.838C125.634 105.287 127.93 104.759 129.816 103.868C131.702 102.977 132.792 101.746 133.155 101.336C133.131 100.949 133.518 100.926 133.495 100.539L133.471 100.152C133.401 98.9914 133.471 100.152 133.495 100.539C133.905 100.902 133.518 100.926 133.108 100.562C132.288 99.8355 129.921 99.2025 127.555 98.5696C125.188 97.9366 122.072 97.7374 119.343 97.5148C113.497 97.0929 107.288 97.0814 101.103 97.4568L91.438 98.0433L81.3868 98.6533C74.8148 99.0521 67.8563 99.4744 60.8977 99.8967C53.9157 99.9321 46.9337 99.9675 39.1315 99.2762C35.2187 98.737 31.3059 98.198 26.9595 96.9086C22.6132 95.6192 17.4467 93.603 12.8891 88.8319C7.9683 84.4711 5.22619 77.6484 4.51093 72.2558C3.96 69.5713 4.20573 67.2266 4.04139 64.5186C4.21668 61.0134 4.77854 57.4848 6.50018 53.8857C8.2453 50.6736 10.7871 47.8013 12.9892 45.7263C15.5779 43.6277 17.827 42.3264 20.0761 41.0251C24.5978 38.8093 28.8032 37.7774 32.6221 36.7691C40.2834 35.1393 47.6286 34.6936 54.5871 34.2713C61.5457 33.849 68.5277 33.8136 75.1231 33.8017C88.7006 33.7543 101.915 34.1172 115.129 34.4801C128.32 34.4562 141.968 35.5694 153.566 34.8656C158.978 34.5371 164.32 33.0481 165.409 31.8171C165.772 31.4068 166.159 31.3833 166.451 29.8125C166.428 29.4256 166.744 28.2415 166.697 27.4678L166.603 25.9204C166.58 25.5335 166.627 26.3073 166.627 26.3073L166.65 26.6941C166.674 27.081 167.084 27.4444 167.107 27.8312C167.951 28.9449 168.337 28.9214 167.541 28.5815C167.131 28.2181 166.334 27.8781 165.151 27.5617C163.171 26.9052 160.031 26.3192 157.278 25.7097C151.409 24.9011 145.177 24.5027 138.558 24.1278C125.73 23.7414 112.539 23.7653 99.3716 24.1761C86.2042 24.5869 72.6268 24.6343 59.4359 24.6582C55.9331 24.4825 52.8404 24.6702 49.3377 24.4945C45.8349 24.3188 41.9456 24.1665 38.0093 23.2406C34.073 22.3146 30.1367 21.3886 25.7199 18.9386C23.6931 17.5085 21.2797 16.1018 19.2059 13.898C17.1321 11.6941 15.3744 8.3062 15.1632 4.82447C14.5653 1.36619 15.1272 -2.16247 16.5092 -4.96433C17.5046 -7.74272 19.2967 -10.1812 21.1357 -11.8459C24.7903 -15.5623 29.2884 -18.1649 34.2671 -19.2436C35.4034 -19.7009 36.5631 -19.7713 38.1095 -19.8651L38.8826 -19.912L39.6558 -19.959L40.8156 -20.0293L45.8412 -20.3343L55.8924 -20.9443C69.0598 -21.3551 82.6138 -21.7893 95.7812 -22.2001L115.544 -22.6229C122.526 -22.6583 128.735 -22.6468 134.897 -23.409C141.082 -23.7844 147.631 -24.5701 152.176 -26.399C153.312 -26.8563 154.062 -27.29 153.675 -27.2666C153.675 -27.2666 152.949 -26.446 152.656 -24.8751C152.68 -24.4882 152.656 -24.8751 152.656 -24.8751C152.68 -24.4882 153.066 -24.5117 152.656 -24.8751C152.246 -25.2385 151.45 -25.5784 150.243 -26.2817C145.487 -27.9345 139.231 -28.7197 132.588 -29.4815L122.42 -30.8058C120.85 -31.0988 118.893 -31.3684 117.324 -31.6614C115.367 -31.931 113.774 -32.6108 112.204 -32.9039C98.8019 -36.3617 85.3528 -40.5932 73.1918 -49.174C67.1113 -53.4644 61.7569 -58.5755 57.492 -64.9175C53.227 -71.2595 50.4615 -78.4691 48.8791 -85.3622C47.2733 -92.6421 46.8507 -99.6056 46.8147 -106.593C46.7787 -113.579 47.1528 -120.203 47.1402 -126.803C47.8649 -140.437 48.9996 -153.708 50.5209 -167.001C52.0422 -180.295 53.9736 -193.226 54.3586 -206.063C55.1302 -218.923 55.1052 -232.123 53.9438 -244.866C53.3694 -247.938 53.1582 -251.419 52.5838 -254.491L50.8371 -264.092C49.6883 -270.235 47.3797 -276.307 45.0712 -282.38C40.0909 -294.114 32.8147 -305.321 25.1753 -316.118C17.5359 -326.914 9.14681 -337.277 0.418104 -346.843C0.00804143 -347.206 -0.0623893 -348.367 0.30072 -348.777C0.663829 -349.188 1.437 -349.234 2.23365 -348.895C11.7121 -339.763 20.8508 -329.834 29.2634 -319.084C37.6524 -308.721 44.9287 -297.514 51.1157 -285.076C54.1974 -279.051 56.5294 -272.591 58.1118 -265.698L60.2685 -255.734C60.8664 -252.275 61.4408 -249.204 62.0387 -245.746C64.4067 -232.299 65.2284 -218.759 64.8904 -205.149C64.2142 -177.928 59.9649 -152.043 59.6284 -125.619C59.2668 -112.396 58.5187 -99.1488 61.5425 -87.6838C64.1798 -76.1953 70.9755 -66.5123 80.6997 -59.725C90.4238 -52.9377 102.69 -49.0227 114.885 -46.2682C116.455 -45.9752 118.025 -45.6822 119.208 -45.3657C120.778 -45.0727 122.348 -44.7796 123.894 -44.8735L133.653 -43.9126C140.295 -43.1508 147.3 -42.7994 155.243 -39.7869C157.223 -39.1305 159.227 -38.0872 161.664 -36.2937C163.714 -34.4767 166.198 -31.9094 167.182 -28.4746C167.229 -27.7008 167.663 -26.9506 167.733 -25.79C167.78 -25.0163 167.827 -24.2426 167.898 -23.082C167.699 -19.9637 165.907 -17.5252 164.817 -16.2942C162.252 -13.8088 159.98 -12.8943 158.094 -12.0033C153.912 -10.5847 150.479 -9.59986 147.023 -9.00185C143.568 -8.40385 140.112 -7.80586 136.633 -7.59472C129.698 -6.78557 122.715 -6.75015 116.144 -6.35132L96.4042 -5.54167C83.2602 -4.74402 70.1163 -3.94637 56.9724 -3.14872L46.9211 -2.53875L41.8955 -2.23377L40.7358 -2.16339L39.9626 -2.11646L39.576 -2.093C39.1894 -2.06954 38.8028 -2.04608 38.4163 -2.02262C36.8934 -1.54192 35.394 -0.674396 34.3046 0.556564C33.2153 1.78752 33.2623 2.56125 33.6019 1.76407C33.5784 1.37721 33.5784 1.37725 33.5784 1.37725C33.5784 1.37725 34.3751 1.71714 34.8086 2.4674C36.4019 3.14728 38.7684 3.78026 41.5214 4.38976C44.2745 4.99925 47.0041 5.2219 50.0968 5.03422C53.2129 5.2334 56.6922 5.02222 59.7849 4.83454C72.9523 4.42375 86.1197 4.01297 99.2871 3.60218C112.455 3.19139 125.985 2.37029 139.563 2.3229C146.545 2.28747 153.163 2.66239 160.579 3.37722C164.105 3.9398 168.018 4.47887 172.364 5.76824C174.344 6.42466 176.711 7.05763 179.124 8.46431C181.538 9.87098 184.771 12.0045 186.939 15.7558C187.396 16.8929 188.24 18.0066 188.31 19.1671C188.357 19.9409 188.767 20.3043 188.814 21.078C188.837 21.4648 189.294 22.6019 189.294 22.6019C189.365 23.7625 189.435 24.9231 189.506 26.0837C189.647 28.4048 189.787 30.726 189.179 33.4809C188.956 36.2124 187.961 38.9908 186.579 41.7926C185.197 44.5945 183.405 47.033 181.203 49.108C176.798 53.2582 172.253 55.0871 168.071 56.5057C163.889 57.9244 160.047 58.5458 156.204 59.1673C141.175 60.856 128.323 60.0828 115.156 60.4936L75.6068 60.9522C62.826 61.3396 49.6585 61.7503 38.928 63.9547C36.2454 64.5057 33.9728 65.4202 32.45 65.9009C30.9506 66.7685 30.9741 67.1553 31.3137 66.3582C31.6768 65.9478 31.6533 65.561 31.6533 65.561C31.7003 66.3347 31.7707 67.4953 31.7942 67.8821C31.8646 69.0427 31.8411 68.6559 32.2512 69.0193C32.2512 69.0193 33.4579 69.7226 35.4378 70.379C37.4177 71.0354 39.7841 71.6684 42.5137 71.891C47.9964 72.7231 54.2052 72.7346 60.8007 72.7227C67.0095 72.7342 73.5815 72.3354 80.1769 72.3234L89.8651 72.1237L100.326 71.8772C107.308 71.8418 114.314 72.1932 121.729 72.908C125.256 73.4706 129.169 74.0097 133.105 74.9357C137.065 76.2485 141.387 77.151 145.851 80.3747C148.288 82.1682 150.725 83.9618 152.869 87.3262C154.99 90.3038 156.045 94.8992 156.162 96.8335C156.374 100.315 156.175 103.434 155.203 106.599C154.231 109.764 152.825 112.179 151.033 114.618C147.426 119.108 142.564 122.121 138.382 123.539C134.224 125.345 129.995 125.99 126.153 126.611C122.31 127.233 118.444 127.467 114.942 127.291C111.052 127.139 108.346 127.303 104.843 127.128L85.0101 126.39C78.4146 126.402 71.7957 126.027 65.6103 126.402C59.0149 126.414 52.8295 126.79 47.0542 127.528C45.5078 127.622 44.3715 128.079 43.2118 128.15C42.052 128.22 40.9392 129.064 41.6889 128.631C41.6889 128.631 42.052 128.22 42.3917 127.423C42.3682 127.036 42.3682 127.036 42.3917 127.423L42.0285 127.833C41.6654 128.244 41.7124 129.017 41.3493 129.428C41.0097 130.225 41.0566 130.999 40.6935 131.409C40.717 131.796 40.7405 132.183 40.7639 132.57C41.174 132.933 41.6075 133.683 42.4277 134.41C44.0679 135.864 46.8444 136.86 49.5975 137.469C55.1271 139.075 61.793 140.224 68.0253 140.622L87.929 142.521C91.4318 142.696 94.5714 143.282 98.0976 143.845C101.624 144.408 105.15 144.97 108.36 146.717C111.957 148.44 114.874 151.757 116.222 154.782C117.593 158.193 118.554 161.241 119.901 164.266C119.948 165.04 119.609 165.837 119.222 165.86C118.953 167.818 118.156 167.478 117.723 166.728Z" fill="#00594E"/>
</g>
</svg>
