<svg xmlns="http://www.w3.org/2000/svg" viewBox="0 0 80 80"><defs><style>.cls-1{fill:none;stroke:#00594e;stroke-miterlimit:10;stroke-width:1.8px;}.cls-2{fill:#b22c37;}.cls-3{fill:#b2a286;}</style></defs><g id="Layer_3" data-name="Layer 3"><path class="cls-1" d="M32.87,42.56l-.75-7.67m7.81.6-.22-3.72M49.13,31,22.69,57.41M40.59,39.7l6.91.38M33.72,46.65l10.62,1M25.89,49.79C22.11,44.07,21.78,35.63,30,29.72c7.09-5.09,27.29-7.13,27.29-7.13s-1.87,19.43-7.25,27c-7.3,10.33-16.82,8-22.15,2.64"/><g id="Layer_1" data-name="Layer 1"><path class="cls-2" d="M5.33,29.33a3.83,3.83,0,0,0,3.86-3.85,3.7,3.7,0,0,0-3.86-3.7,3.83,3.83,0,0,0-3.85,3.85A3.7,3.7,0,0,0,5.33,29.33Z"/><path class="cls-3" d="M40,80A40,40,0,0,1,0,40a37.1,37.1,0,0,1,.15-4.15L1.93,36a35.66,35.66,0,0,0-.15,4,38.28,38.28,0,1,0,9.63-25.33l-1.34-1.19A40,40,0,1,1,40,80Z"/></g></g></svg>