<svg xmlns="http://www.w3.org/2000/svg" xmlns:xlink="http://www.w3.org/1999/xlink" viewBox="0 0 80 80"><defs><style>.cls-1,.cls-3{fill:none;}.cls-2{clip-path:url(#clip-path);}.cls-3{stroke:#00594e;stroke-linejoin:round;stroke-width:1.37px;}.cls-4{fill:#00594e;}.cls-5{fill:#b22c37;}.cls-6{fill:#b2a286;}</style><clipPath id="clip-path"><rect class="cls-1" x="28.37" y="3.82" width="23.27" height="72.35"/></clipPath></defs><g id="Layer_3" data-name="Layer 3"><g class="cls-2"><path class="cls-3" d="M48.6,46.64V33.2S49,29,47.55,26.39s-2.67-2.32-2.63-5.57c0,0,.13-1.49-.56-2a1.59,1.59,0,0,1-.6-1.51c0-.44,0-.77,0-.77h.41v-4s.23-1.38-1.41-1.38H37c-1.64,0-1.41,1.38-1.41,1.38v4H36s0,.33,0,.77a1.59,1.59,0,0,1-.6,1.51c-.69.54-.56,2-.56,2,0,3.25-1.23,2.95-2.63,5.57s-1.05,6.81-1.05,6.81V46.64s0,10.85,0,16.29,2.64,6.26,3.85,6.26a3.69,3.69,0,0,0,1.89-.45c0,1,1.27.94,1.27.94h3.5s1.27,0,1.27-.94a3.64,3.64,0,0,0,1.89.45c1.21,0,3.85-.81,3.85-6.26S48.6,46.64,48.6,46.64Z"/></g><path class="cls-4" d="M44.41,63.34H35.35v1.35l1.1,1.36H38l-1-1.36h7.48ZM42.47,58H37.28a1.9,1.9,0,0,0-1.5.57,2.09,2.09,0,0,0-.53,1.44,2.12,2.12,0,0,0,.53,1.45,1.94,1.94,0,0,0,1.5.57h5.19A1.91,1.91,0,0,0,44,61.5a2.08,2.08,0,0,0,.54-1.45A2.05,2.05,0,0,0,44,58.61a1.88,1.88,0,0,0-1.5-.57m.05,1.34c.53,0,.78.3.78.67s-.25.67-.78.67H37.23c-.52,0-.77-.3-.77-.67s.25-.67.77-.67Zm-.05-5.93H37.28a1.9,1.9,0,0,0-1.5.57,2.09,2.09,0,0,0-.53,1.44,2.12,2.12,0,0,0,.53,1.45,1.94,1.94,0,0,0,1.5.57h5.19a1.91,1.91,0,0,0,1.5-.57,2.08,2.08,0,0,0,.54-1.45A2.05,2.05,0,0,0,44,54a1.88,1.88,0,0,0-1.5-.57m.05,1.35c.53,0,.78.29.78.66s-.25.67-.78.67H37.23c-.52,0-.77-.3-.77-.67s.25-.66.77-.66ZM43,44.71H41.29a1.62,1.62,0,0,0,0,3.23H43a1.62,1.62,0,0,0,0-3.23M38.47,49.6H36.78a1.61,1.61,0,0,0,0,3.22h1.69a1.61,1.61,0,0,0,0-3.22m-3.12-2.94v1l9.06,3.15v-1Zm3.09,4c.4,0,.58.2.58.51s-.18.52-.58.52H36.8c-.39,0-.57-.21-.57-.52s.18-.51.57-.51ZM43,45.82c.39,0,.57.2.57.51s-.18.51-.57.51H41.32c-.4,0-.58-.21-.58-.51s.18-.51.58-.51Zm-4.05-6.55H37.6a2,2,0,0,0,.29,1,1.74,1.74,0,0,0,.53.58h-.71v1.3h6.7V40.85H40.07a1.08,1.08,0,0,1-1.16-1.12Zm-.8-5.07c-1.89,0-2.76.69-2.76,2.33V38.8h9.06V37.38H40.86v-.85c0-1.64-.85-2.33-2.75-2.33m0,1.42c.92,0,1.47.19,1.47,1v.8H36.64v-.8c0-.77.56-1,1.47-1m6.3-5.94H43.12v2.37H40.49V30H39.21v2H36.64V29.68H35.35v3.8h9.06ZM36.64,25H35.35v4.46h1.29V27.93h7.77V26.51H36.64Z"/><g id="Layer_1" data-name="Layer 1"><path class="cls-5" d="M5.33,29.33a3.83,3.83,0,0,0,3.86-3.85,3.7,3.7,0,0,0-3.86-3.7,3.83,3.83,0,0,0-3.85,3.85A3.7,3.7,0,0,0,5.33,29.33Z"/><path class="cls-6" d="M40,80A40,40,0,0,1,0,40a37.1,37.1,0,0,1,.15-4.15L1.93,36a35.66,35.66,0,0,0-.15,4,38.28,38.28,0,1,0,9.63-25.33l-1.34-1.19A40,40,0,1,1,40,80Z"/></g></g></svg>