<svg width="80" height="80" viewBox="0 0 80 80" fill="none" xmlns="http://www.w3.org/2000/svg">
<path d="M38.5184 57.4815L36.7407 54.3704H27.2592L25.4814 57.4815L23.8518 56.5926L25.6295 53.4815L20.8888 45.1852H17.3333V43.4074H20.8888L25.6295 35.2593L23.8518 32.1481L25.4814 31.2593L27.2592 34.3704H36.7407L41.4814 26.2222L39.7036 23.1111L41.3333 22.2222L43.111 25.3333H52.5925L54.3703 22.2222L55.9999 23.1111L54.2221 26.2222L58.9629 34.5185H62.5184V36.2963H58.9629L54.2221 44.4444L55.9999 47.5556L54.3703 48.4444L52.5925 45.3333H43.111L38.3703 53.4815L40.1481 56.5926L38.5184 57.4815ZM27.2592 52.5926H36.7407L41.4814 44.4444L36.7407 36.2963H27.2592L22.5184 44.4444L27.2592 52.5926ZM43.111 43.5556H52.5925L57.3333 35.4074L52.5925 27.2593H43.111L38.3703 35.4074L43.111 43.5556ZM34.8147 50.3704H29.3333V48.5926H34.8147V50.3704ZM27.111 44.7407L25.4814 43.8519L28.1481 39.1111L29.7777 40L27.111 44.7407ZM50.6666 41.1852H45.1851V39.4074H50.6666V41.1852ZM52.8888 35.5556L50.2221 30.8148L51.8518 29.9259L54.5184 34.6667L52.8888 35.5556Z" fill="#00594E"/>
<path d="M5.3333 29.3333C7.40737 29.3333 9.18515 27.7037 9.18515 25.4815C9.18515 23.2593 7.40737 21.7778 5.3333 21.7778C3.25922 21.7778 1.48145 23.4074 1.48145 25.6296C1.48145 27.8518 3.25922 29.3333 5.3333 29.3333Z" fill="#B22C37"/>
<path d="M40 80C17.9259 80 0 62.0741 0 40C0 38.5185 0 37.1852 0.148148 35.8519L1.92593 36C1.77778 37.3333 1.77778 38.6667 1.77778 40C1.77778 61.037 18.8148 78.0741 39.8518 78.0741C60.8889 78.0741 78.0741 61.037 78.0741 40C78.0741 18.963 61.037 1.77778 40 1.77778C29.037 1.77778 18.6667 6.51852 11.4074 14.6667L10.0741 13.4815C17.6296 4.88889 28.5926 0 40 0C62.0741 0 80 17.9259 80 40C80 62.0741 62.0741 80 40 80Z" fill="#B2A286"/>
</svg>
